#define width 7
#define height 64
static char image_bits[] = {
  0x7F, 0x7F, 0x7F, 0x7F, 0x7F, 0x7F, 0x01, 0x7F, 0x7F, 0x7F, 0x07, 0x7F, 
  0x7F, 0x7F, 0x01, 0x7F, 0x7F, 0x7F, 0x07, 0x7F, 0x7F, 0x7F, 0x01, 0x7F, 
  0x7F, 0x7F, 0x07, 0x7F, 0x7F, 0x7F, 0x03, 0x00, 0x03, 0x7F, 0x7F, 0x7F, 
  0x07, 0x7F, 0x7F, 0x7F, 0x01, 0x7F, 0x7F, 0x7F, 0x07, 0x7F, 0x7F, 0x7F, 
  0x01, 0x7F, 0x7F, 0x7F, 0x07, 0x7F, 0x7F, 0x7F, 0x01, 0x7F, 0x7F, 0x7F, 
  0x7F, 0x7F, 0x7F, 0x7F, };
